{"asset":{"version":"2.0","generator":"Blockbench 5.0.7 glTF exporter"},"scenes":[{"nodes":[12],"name":"blockbench_export"}],"scene":0,"nodes":[{"rotation":[0,0,0.7071067811865475,0.7071067811865476],"translation":[0.25,0.5625,0.4375],"name":"mesh","mesh":0},{"rotation":[0,0,0.7071067811865475,0.7071067811865476],"translation":[0.25,0.421875,0.4375],"name":"mesh","mesh":1},{"rotation":[0,0,0.7071067811865475,0.7071067811865476],"translation":[0.25,0.28125,0.4375],"name":"mesh","mesh":2},{"rotation":[0.5,-0.4999999999999999,0.5,0.5000000000000001],"translation":[0.25,0.203125,0.34375],"name":"mesh","mesh":3},{"rotation":[0.5,-0.4999999999999999,0.5,0.5000000000000001],"translation":[0.25,0.203125,0.1875],"name":"mesh","mesh":4},{"rotation":[0.5,-0.4999999999999999,0.5,0.5000000000000001],"translation":[0.25,0.203125,0.03125],"name":"mesh","mesh":5},{"rotation":[0.7071067811865476,2.0798159861001864e-9,0.7071067811865476,2.0798160416113376e-9],"translation":[0.375,0.375,0.03125],"name":"mesh","mesh":6},{"rotation":[0.7071067811865476,2.0798159861001864e-9,0.7071067811865476,2.0798160416113376e-9],"translation":[-0.375,0.375,0.03125],"name":"mesh","mesh":7},{"rotation":[0.7071067811865476,2.0798159861001864e-9,0.7071067811865476,2.0798160416113376e-9],"translation":[-0.375,0.375,0.34375],"name":"mesh","mesh":8},{"rotation":[0.7071067811865476,2.0798159861001864e-9,0.7071067811865476,2.0798160416113376e-9],"translation":[0.375,0.375,0.34375],"name":"mesh","mesh":9},{"rotation":[9.215682718880118e-16,0.707106781186547,-0.707106781186548,-8.349726662644612e-16],"translation":[0.25,0.15625,0.4375],"name":"mesh","mesh":10},{"rotation":[9.215682718880118e-16,0.707106781186547,-0.707106781186548,-8.349726662644612e-16],"translation":[-0.25,0.15625,0.4375],"name":"mesh","mesh":11},{"name":"Bench","children":[0,1,2,3,4,5,6,7,8,9,10,11]}],"bufferViews":[{"buffer":0,"byteOffset":0,"byteLength":672,"target":34962,"byteStride":12},{"buffer":0,"byteOffset":672,"byteLength":672,"target":34962,"byteStride":12},{"buffer":0,"byteOffset":1344,"byteLength":448,"target":34962,"byteStride":8},{"buffer":0,"byteOffset":1792,"byteLength":168,"target":34963},{"buffer":0,"byteOffset":1960,"byteLength":672,"target":34962,"byteStride":12},{"buffer":0,"byteOffset":2632,"byteLength":672,"target":34962,"byteStride":12},{"buffer":0,"byteOffset":3304,"byteLength":448,"target":34962,"byteStride":8},{"buffer":0,"byteOffset":3752,"byteLength":168,"target":34963},{"buffer":0,"byteOffset":3920,"byteLength":672,"target":34962,"byteStride":12},{"buffer":0,"byteOffset":4592,"byteLength":672,"target":34962,"byteStride":12},{"buffer":0,"byteOffset":5264,"byteLength":448,"target":34962,"byteStride":8},{"buffer":0,"byteOffset":5712,"byteLength":168,"target":34963},{"buffer":0,"byteOffset":5880,"byteLength":672,"target":34962,"byteStride":12},{"buffer":0,"byteOffset":6552,"byteLength":672,"target":34962,"byteStride":12},{"buffer":0,"byteOffset":7224,"byteLength":448,"target":34962,"byteStride":8},{"buffer":0,"byteOffset":7672,"byteLength":168,"target":34963},{"buffer":0,"byteOffset":7840,"byteLength":672,"target":34962,"byteStride":12},{"buffer":0,"byteOffset":8512,"byteLength":672,"target":34962,"byteStride":12},{"buffer":0,"byteOffset":9184,"byteLength":448,"target":34962,"byteStride":8},{"buffer":0,"byteOffset":9632,"byteLength":168,"target":34963},{"buffer":0,"byteOffset":9800,"byteLength":672,"target":34962,"byteStride":12},{"buffer":0,"byteOffset":10472,"byteLength":672,"target":34962,"byteStride":12},{"buffer":0,"byteOffset":11144,"byteLength":448,"target":34962,"byteStride":8},{"buffer":0,"byteOffset":11592,"byteLength":168,"target":34963},{"buffer":0,"byteOffset":11760,"byteLength":288,"target":34962,"byteStride":12},{"buffer":0,"byteOffset":12048,"byteLength":288,"target":34962,"byteStride":12},{"buffer":0,"byteOffset":12336,"byteLength":192,"target":34962,"byteStride":8},{"buffer":0,"byteOffset":12528,"byteLength":72,"target":34963},{"buffer":0,"byteOffset":12600,"byteLength":288,"target":34962,"byteStride":12},{"buffer":0,"byteOffset":12888,"byteLength":288,"target":34962,"byteStride":12},{"buffer":0,"byteOffset":13176,"byteLength":192,"target":34962,"byteStride":8},{"buffer":0,"byteOffset":13368,"byteLength":72,"target":34963},{"buffer":0,"byteOffset":13440,"byteLength":288,"target":34962,"byteStride":12},{"buffer":0,"byteOffset":13728,"byteLength":288,"target":34962,"byteStride":12},{"buffer":0,"byteOffset":14016,"byteLength":192,"target":34962,"byteStride":8},{"buffer":0,"byteOffset":14208,"byteLength":72,"target":34963},{"buffer":0,"byteOffset":14280,"byteLength":288,"target":34962,"byteStride":12},{"buffer":0,"byteOffset":14568,"byteLength":288,"target":34962,"byteStride":12},{"buffer":0,"byteOffset":14856,"byteLength":192,"target":34962,"byteStride":8},{"buffer":0,"byteOffset":15048,"byteLength":72,"target":34963},{"buffer":0,"byteOffset":15120,"byteLength":672,"target":34962,"byteStride":12},{"buffer":0,"byteOffset":15792,"byteLength":672,"target":34962,"byteStride":12},{"buffer":0,"byteOffset":16464,"byteLength":448,"target":34962,"byteStride":8},{"buffer":0,"byteOffset":16912,"byteLength":168,"target":34963},{"buffer":0,"byteOffset":17080,"byteLength":672,"target":34962,"byteStride":12},{"buffer":0,"byteOffset":17752,"byteLength":672,"target":34962,"byteStride":12},{"buffer":0,"byteOffset":18424,"byteLength":448,"target":34962,"byteStride":8},{"buffer":0,"byteOffset":18872,"byteLength":168,"target":34963}],"buffers":[{"byteLength":19040,"uri":"data:application/octet-stream;base64,"}],"accessors":[{"bufferView":0,"componentType":5126,"count":56,"max":[0.0625,0.71875,0.03125],"min":[-0.0625,-0.21875,-0.03125],"type":"VEC3"},{"bufferView":1,"componentType":5126,"count":56,"max":[1,1,1],"min":[-1,-1,-1],"type":"VEC3"},{"bufferView":2,"componentType":5126,"count":56,"max":[0.75,0.9375],"min":[0,0],"type":"VEC2"},{"bufferView":3,"componentType":5123,"count":84,"max":[55],"min":[0],"type":"SCALAR"},{"bufferView":4,"componentType":5126,"count":56,"max":[0.0625,0.71875,0.03125],"min":[-0.0625,-0.21875,-0.03125],"type":"VEC3"},{"bufferView":5,"componentType":5126,"count":56,"max":[1,1,1],"min":[-1,-1,-1],"type":"VEC3"},{"bufferView":6,"componentType":5126,"count":56,"max":[0.75,0.9375],"min":[0,0],"type":"VEC2"},{"bufferView":7,"componentType":5123,"count":84,"max":[55],"min":[0],"type":"SCALAR"},{"bufferView":8,"componentType":5126,"count":56,"max":[0.0625,0.71875,0.03125],"min":[-0.0625,-0.21875,-0.03125],"type":"VEC3"},{"bufferView":9,"componentType":5126,"count":56,"max":[1,1,1],"min":[-1,-1,-1],"type":"VEC3"},{"bufferView":10,"componentType":5126,"count":56,"max":[0.75,0.9375],"min":[0,0],"type":"VEC2"},{"bufferView":11,"componentType":5123,"count":84,"max":[55],"min":[0],"type":"SCALAR"},{"bufferView":12,"componentType":5126,"count":56,"max":[0.0625,0.71875,0.03125],"min":[-0.0625,-0.21875,-0.03125],"type":"VEC3"},{"bufferView":13,"componentType":5126,"count":56,"max":[1,1,1],"min":[-1,-1,-1],"type":"VEC3"},{"bufferView":14,"componentType":5126,"count":56,"max":[0.75,0.9375],"min":[0,0],"type":"VEC2"},{"bufferView":15,"componentType":5123,"count":84,"max":[55],"min":[0],"type":"SCALAR"},{"bufferView":16,"componentType":5126,"count":56,"max":[0.0625,0.71875,0.03125],"min":[-0.0625,-0.21875,-0.03125],"type":"VEC3"},{"bufferView":17,"componentType":5126,"count":56,"max":[1,1,1],"min":[-1,-1,-1],"type":"VEC3"},{"bufferView":18,"componentType":5126,"count":56,"max":[0.75,0.9375],"min":[0,0],"type":"VEC2"},{"bufferView":19,"componentType":5123,"count":84,"max":[55],"min":[0],"type":"SCALAR"},{"bufferView":20,"componentType":5126,"count":56,"max":[0.0625,0.71875,0.03125],"min":[-0.0625,-0.21875,-0.03125],"type":"VEC3"},{"bufferView":21,"componentType":5126,"count":56,"max":[1,1,1],"min":[-1,-1,-1],"type":"VEC3"},{"bufferView":22,"componentType":5126,"count":56,"max":[0.75,0.9375],"min":[0,0],"type":"VEC2"},{"bufferView":23,"componentType":5123,"count":84,"max":[55],"min":[0],"type":"SCALAR"},{"bufferView":24,"componentType":5126,"count":24,"max":[0.03125,0.375,0.03125],"min":[-0.03125,0.1875,-0.03125],"type":"VEC3"},{"bufferView":25,"componentType":5126,"count":24,"max":[1,1,1],"min":[-1,-1,-1],"type":"VEC3"},{"bufferView":26,"componentType":5126,"count":24,"max":[0.625,0.875],"min":[0,0],"type":"VEC2"},{"bufferView":27,"componentType":5123,"count":36,"max":[23],"min":[0],"type":"SCALAR"},{"bufferView":28,"componentType":5126,"count":24,"max":[0.03125,0.375,0.03125],"min":[-0.03125,0.1875,-0.03125],"type":"VEC3"},{"bufferView":29,"componentType":5126,"count":24,"max":[1,1,1],"min":[-1,-1,-1],"type":"VEC3"},{"bufferView":30,"componentType":5126,"count":24,"max":[0.625,0.875],"min":[0,0],"type":"VEC2"},{"bufferView":31,"componentType":5123,"count":36,"max":[23],"min":[0],"type":"SCALAR"},{"bufferView":32,"componentType":5126,"count":24,"max":[0.03125,0.375,0.03125],"min":[-0.03125,0.1875,-0.03125],"type":"VEC3"},{"bufferView":33,"componentType":5126,"count":24,"max":[1,1,1],"min":[-1,-1,-1],"type":"VEC3"},{"bufferView":34,"componentType":5126,"count":24,"max":[0.625,0.875],"min":[0,0],"type":"VEC2"},{"bufferView":35,"componentType":5123,"count":36,"max":[23],"min":[0],"type":"SCALAR"},{"bufferView":36,"componentType":5126,"count":24,"max":[0.03125,0.375,0.03125],"min":[-0.03125,0.1875,-0.03125],"type":"VEC3"},{"bufferView":37,"componentType":5126,"count":24,"max":[1,1,1],"min":[-1,-1,-1],"type":"VEC3"},{"bufferView":38,"componentType":5126,"count":24,"max":[0.625,0.875],"min":[0,0],"type":"VEC2"},{"bufferView":39,"componentType":5123,"count":36,"max":[23],"min":[0],"type":"SCALAR"},{"bufferView":40,"componentType":5126,"count":56,"max":[0.0625,0.46875,0.015625],"min":[-0.0625,-0.078125,-0.484375],"type":"VEC3"},{"bufferView":41,"componentType":5126,"count":56,"max":[1,1,1],"min":[-1,-1,-1],"type":"VEC3"},{"bufferView":42,"componentType":5126,"count":56,"max":[0.40625,0.625],"min":[0,0],"type":"VEC2"},{"bufferView":43,"componentType":5123,"count":84,"max":[55],"min":[0],"type":"SCALAR"},{"bufferView":44,"componentType":5126,"count":56,"max":[0.0625,0.46875,0.015625],"min":[-0.0625,-0.078125,-0.484375],"type":"VEC3"},{"bufferView":45,"componentType":5126,"count":56,"max":[1,1,1],"min":[-1,-1,-1],"type":"VEC3"},{"bufferView":46,"componentType":5126,"count":56,"max":[0.40625,0.625],"min":[0,0],"type":"VEC2"},{"bufferView":47,"componentType":5123,"count":84,"max":[55],"min":[0],"type":"SCALAR"}],"materials":[{"pbrMetallicRoughness":{"metallicFactor":0,"roughnessFactor":1,"baseColorTexture":{"index":0}},"alphaMode":"MASK","alphaCutoff":0.05,"doubleSided":true},{"pbrMetallicRoughness":{"metallicFactor":0,"roughnessFactor":1,"baseColorTexture":{"index":1}},"alphaMode":"MASK","alphaCutoff":0.05,"doubleSided":true},{"pbrMetallicRoughness":{"metallicFactor":0,"roughnessFactor":1,"baseColorTexture":{"index":2}},"alphaMode":"MASK","alphaCutoff":0.05,"doubleSided":true}],"textures":[{"sampler":0,"source":0,"name":"texture"},{"sampler":1,"source":1,"name":"texture"},{"sampler":2,"source":2,"name":"texture"}],"samplers":[{"magFilter":9728,"minFilter":9728,"wrapS":33071,"wrapT":33071},{"magFilter":9728,"minFilter":9728,"wrapS":33071,"wrapT":33071},{"magFilter":9728,"minFilter":9728,"wrapS":33071,"wrapT":33071}],"images":[{"mimeType":"image/png","uri":"data:image/png;base64,"},{"mimeType":"image/png","uri":"data:image/png;base64,"},{"mimeType":"image/png","uri":"data:image/png;base64,"}],"meshes":[{"primitives":[{"mode":4,"attributes":{"POSITION":0,"NORMAL":1,"TEXCOORD_0":2},"indices":3,"material":0}]},{"primitives":[{"mode":4,"attributes":{"POSITION":4,"NORMAL":5,"TEXCOORD_0":6},"indices":7,"material":0}]},{"primitives":[{"mode":4,"attributes":{"POSITION":8,"NORMAL":9,"TEXCOORD_0":10},"indices":11,"material":0}]},{"primitives":[{"mode":4,"attributes":{"POSITION":12,"NORMAL":13,"TEXCOORD_0":14},"indices":15,"material":0}]},{"primitives":[{"mode":4,"attributes":{"POSITION":16,"NORMAL":17,"TEXCOORD_0":18},"indices":19,"material":0}]},{"primitives":[{"mode":4,"attributes":{"POSITION":20,"NORMAL":21,"TEXCOORD_0":22},"indices":23,"material":0}]},{"primitives":[{"mode":4,"attributes":{"POSITION":24,"NORMAL":25,"TEXCOORD_0":26},"indices":27,"material":1}]},{"primitives":[{"mode":4,"attributes":{"POSITION":28,"NORMAL":29,"TEXCOORD_0":30},"indices":31,"material":1}]},{"primitives":[{"mode":4,"attributes":{"POSITION":32,"NORMAL":33,"TEXCOORD_0":34},"indices":35,"material":1}]},{"primitives":[{"mode":4,"attributes":{"POSITION":36,"NORMAL":37,"TEXCOORD_0":38},"indices":39,"material":1}]},{"primitives":[{"mode":4,"attributes":{"POSITION":40,"NORMAL":41,"TEXCOORD_0":42},"indices":43,"material":2}]},{"primitives":[{"mode":4,"attributes":{"POSITION":44,"NORMAL":45,"TEXCOORD_0":46},"indices":47,"material":2}]}]}