{"asset":{"version":"2.0","generator":"Blockbench 5.0.7 glTF exporter"},"scenes":[{"nodes":[0],"name":"blockbench_export"}],"scene":0,"nodes":[{"rotation":[0.7071067811865475,0,0,0.7071067811865476],"translation":[0,0.375,0],"name":"mesh","mesh":0}],"bufferViews":[{"buffer":0,"byteOffset":0,"byteLength":1920,"target":34962,"byteStride":12},{"buffer":0,"byteOffset":1920,"byteLength":1920,"target":34962,"byteStride":12},{"buffer":0,"byteOffset":3840,"byteLength":1280,"target":34962,"byteStride":8},{"buffer":0,"byteOffset":5120,"byteLength":480,"target":34963}],"buffers":[{"byteLength":5600,"uri":"data:application/octet-stream;base64,"}],"accessors":[{"bufferView":0,"componentType":5126,"count":160,"max":[0.5625,0.3125,0.375],"min":[-0.5625,0.1875,-0.5],"type":"VEC3"},{"bufferView":1,"componentType":5126,"count":160,"max":[0.9701424837112427,1,0.800000011920929],"min":[-0.9701424837112427,-1,-0.8944271802902222],"type":"VEC3"},{"bufferView":2,"componentType":5126,"count":160,"max":[1,0.75],"min":[0,0],"type":"VEC2"},{"bufferView":3,"componentType":5123,"count":240,"max":[159],"min":[0],"type":"SCALAR"}],"materials":[{"pbrMetallicRoughness":{"metallicFactor":0,"roughnessFactor":1,"baseColorTexture":{"index":0}},"alphaMode":"MASK","alphaCutoff":0.05,"doubleSided":true}],"textures":[{"sampler":0,"source":0,"name":"Heart"}],"samplers":[{"magFilter":9728,"minFilter":9728,"wrapS":33071,"wrapT":33071}],"images":[{"mimeType":"image/png","uri":"data:image/png;base64,"}],"meshes":[{"primitives":[{"mode":4,"attributes":{"POSITION":0,"NORMAL":1,"TEXCOORD_0":2},"indices":3,"material":0}]}]}