{"asset":{"version":"2.0","generator":"Blockbench 5.0.7 glTF exporter"},"scenes":[{"nodes":[2,3],"name":"blockbench_export"}],"scene":0,"nodes":[{"name":"cylinder","mesh":0},{"rotation":[0.7071067811865475,0,0,0.7071067811865476],"translation":[0,2.875,-0.25],"name":"mesh","mesh":1},{"name":"group","children":[0,1]},{"name":"mesh","mesh":2}],"bufferViews":[{"buffer":0,"byteOffset":0,"byteLength":1440,"target":34962,"byteStride":12},{"buffer":0,"byteOffset":1440,"byteLength":1440,"target":34962,"byteStride":12},{"buffer":0,"byteOffset":2880,"byteLength":960,"target":34962,"byteStride":8},{"buffer":0,"byteOffset":3840,"byteLength":288,"target":34963},{"buffer":0,"byteOffset":4128,"byteLength":1920,"target":34962,"byteStride":12},{"buffer":0,"byteOffset":6048,"byteLength":1920,"target":34962,"byteStride":12},{"buffer":0,"byteOffset":7968,"byteLength":1280,"target":34962,"byteStride":8},{"buffer":0,"byteOffset":9248,"byteLength":480,"target":34963},{"buffer":0,"byteOffset":9728,"byteLength":480,"target":34962,"byteStride":12},{"buffer":0,"byteOffset":10208,"byteLength":480,"target":34962,"byteStride":12},{"buffer":0,"byteOffset":10688,"byteLength":320,"target":34962,"byteStride":8},{"buffer":0,"byteOffset":11008,"byteLength":120,"target":34963},{"buffer":0,"byteOffset":11128,"byteLength":4},{"buffer":0,"byteOffset":11132,"byteLength":16},{"buffer":0,"byteOffset":11148,"byteLength":8},{"buffer":0,"byteOffset":11156,"byteLength":32},{"buffer":0,"byteOffset":11188,"byteLength":4},{"buffer":0,"byteOffset":11192,"byteLength":16}],"buffers":[{"byteLength":11208,"uri":"data:application/octet-stream;base64,"}],"accessors":[{"bufferView":0,"componentType":5126,"count":120,"max":[0.09375,2.8125,0.09375],"min":[-0.09375,0.5,-0.09375],"type":"VEC3"},{"bufferView":1,"componentType":5126,"count":120,"max":[1,1,1],"min":[-1,-1,-1],"type":"VEC3"},{"bufferView":2,"componentType":5126,"count":120,"max":[0.296875,0.578125],"min":[0.004598437342792749,0],"type":"VEC2"},{"bufferView":3,"componentType":5123,"count":144,"max":[119],"min":[0],"type":"SCALAR"},{"bufferView":4,"componentType":5126,"count":160,"max":[0.5625,0.3125,0.375],"min":[-0.5625,0.1875,-0.5],"type":"VEC3"},{"bufferView":5,"componentType":5126,"count":160,"max":[0.9701424837112427,1,0.800000011920929],"min":[-0.9701424837112427,-1,-0.8944271802902222],"type":"VEC3"},{"bufferView":6,"componentType":5126,"count":160,"max":[1,0.75],"min":[0,0],"type":"VEC2"},{"bufferView":7,"componentType":5123,"count":240,"max":[159],"min":[0],"type":"SCALAR"},{"bufferView":8,"componentType":5126,"count":40,"max":[0.625,0.5,0.625],"min":[-0.625,0,-0.625],"type":"VEC3"},{"bufferView":9,"componentType":5126,"count":40,"max":[0.9701424837112427,1,0.9701424837112427],"min":[-0.9701424837112427,-1,-0.9701424837112427],"type":"VEC3"},{"bufferView":10,"componentType":5126,"count":40,"max":[0.640625,0.671875],"min":[0,0],"type":"VEC2"},{"bufferView":11,"componentType":5123,"count":60,"max":[39],"min":[0],"type":"SCALAR"},{"bufferView":12,"componentType":5126,"count":1,"max":[0],"min":[0],"type":"SCALAR"},{"bufferView":13,"componentType":5126,"count":1,"max":[0,0,0.4809887707233429,0.8767267465591431],"min":[0,0,0.4809887707233429,0.8767267465591431],"type":"VEC4"},{"bufferView":14,"componentType":5126,"count":2,"max":[0.2916666567325592],"min":[0],"type":"SCALAR"},{"bufferView":15,"componentType":5126,"count":2,"max":[0,0,0.4809887707233429,0.8767267465591431],"min":[0,0,-0.4809887707233429,0.8767267465591431],"type":"VEC4"},{"bufferView":16,"componentType":5126,"count":1,"max":[0],"min":[0],"type":"SCALAR"},{"bufferView":17,"componentType":5126,"count":1,"max":[0,0,-0.4809887707233429,0.8767267465591431],"min":[0,0,-0.4809887707233429,0.8767267465591431],"type":"VEC4"}],"materials":[{"pbrMetallicRoughness":{"metallicFactor":0,"roughnessFactor":1,"baseColorTexture":{"index":0}},"alphaMode":"MASK","alphaCutoff":0.05,"doubleSided":true},{"pbrMetallicRoughness":{"metallicFactor":0,"roughnessFactor":1,"baseColorTexture":{"index":1}},"alphaMode":"MASK","alphaCutoff":0.05,"doubleSided":true},{"pbrMetallicRoughness":{"metallicFactor":0,"roughnessFactor":1,"baseColorTexture":{"index":2}},"alphaMode":"MASK","alphaCutoff":0.05,"doubleSided":true}],"textures":[{"sampler":0,"source":0,"name":"texture"},{"sampler":1,"source":1,"name":"Heart.png"},{"sampler":2,"source":2,"name":"texture"}],"samplers":[{"magFilter":9728,"minFilter":9728,"wrapS":33071,"wrapT":33071},{"magFilter":9728,"minFilter":9728,"wrapS":33071,"wrapT":33071},{"magFilter":9728,"minFilter":9728,"wrapS":33071,"wrapT":33071}],"images":[{"mimeType":"image/png","uri":"data:image/png;base64,"},{"mimeType":"image/png","uri":"data:image/png;base64,"},{"mimeType":"image/png","uri":"data:image/png;base64,"}],"meshes":[{"primitives":[{"mode":4,"attributes":{"POSITION":0,"NORMAL":1,"TEXCOORD_0":2},"indices":3,"material":0}]},{"primitives":[{"mode":4,"attributes":{"POSITION":4,"NORMAL":5,"TEXCOORD_0":6},"indices":7,"material":1}]},{"primitives":[{"mode":4,"attributes":{"POSITION":8,"NORMAL":9,"TEXCOORD_0":10},"indices":11,"material":2}]}],"animations":[{"name":"Deactivated","samplers":[{"input":12,"output":13,"interpolation":"LINEAR"}],"channels":[{"sampler":0,"target":{"node":2,"path":"rotation"}}]},{"name":"Activating","samplers":[{"input":14,"output":15,"interpolation":"LINEAR"}],"channels":[{"sampler":0,"target":{"node":2,"path":"rotation"}}]},{"name":"Activated","samplers":[{"input":16,"output":17,"interpolation":"LINEAR"}],"channels":[{"sampler":0,"target":{"node":2,"path":"rotation"}}]}]}