{"asset":{"version":"2.0","generator":"Blockbench 5.0.7 glTF exporter"},"scenes":[{"nodes":[23],"name":"blockbench_export"}],"scene":0,"nodes":[{"rotation":[0.3826834323650898,0,0,0.9238795325112867],"name":"plane","mesh":0},{"rotation":[0.961382517671243,0.033130298638621096,-0.2457486813373449,0.11938854069454868],"translation":[0.1875,-0.125,0.5625],"name":"plane","mesh":1},{"rotation":[0.34838787808247684,0.41378323393857463,0.2699572205724472,0.796575433199721],"translation":[-0.296875,-0.125,0],"name":"plane","mesh":2},{"rotation":[0.8269678774425565,0.3632268596952747,-0.08177258014761499,0.4213117885961225],"translation":[-0.25,0,0.3125],"name":"plane","mesh":3},{"rotation":[0.8613459066770545,0.049242218334611065,-0.3990305346472595,0.3105367376065055],"translation":[0.4375,-0.3125,0.375],"name":"plane","mesh":4},{"rotation":[0.09646209546569184,0.05562763274043091,0.4023475904431337,0.9086897419244193],"translation":[-0.234375,-0.375,-0.1875],"name":"plane","mesh":5},{"rotation":[-0.5275584081193441,-0.026880853741228828,0.848023601674721,0.0426088808508278],"translation":[0.3125,-0.125,0.0625],"name":"plane","mesh":6},{"rotation":[0.8269678774425565,0.3632268596952747,-0.08177258014761499,0.4213117885961225],"translation":[-0.0625,-0.375,0.8125],"name":"plane","mesh":7},{"rotation":[-0.37715106687955485,0.3197270445444391,-0.09517385948415163,0.8639870521074854],"translation":[0.0625,-0.375,0.8125],"name":"plane","mesh":8},{"rotation":[0.1664158202568207,0.21296754546760116,-0.25676497088556877,0.9279128995072154],"translation":[0.0625,-0.5,0.8125],"name":"plane","mesh":9},{"translation":[0,0.4375,-0.25],"name":"Fluff","children":[0,1,2,3,4,5,6,7,8,9]},{"rotation":[0,0,0.2798290140309921,0.9600498543859287],"translation":[-0.25,0.25,0],"name":"mesh","mesh":10},{"rotation":[0,0,-0.2798290140309921,0.9600498543859287],"translation":[0.125,0.25,0],"name":"mesh","mesh":11},{"name":"ears","children":[11,12]},{"rotation":[0.7071067811865475,0,0,0.7071067811865476],"translation":[0.1875,0.125,-0.5],"name":"plane","mesh":12},{"rotation":[0.7071067811865475,0,0,0.7071067811865476],"translation":[-0.1875,0.125,-0.5],"name":"plane","mesh":13},{"name":"Eyes","children":[14,15]},{"name":"sphere","mesh":14},{"name":"Main Body","children":[17]},{"translation":[0,0,-0.5],"name":"sphere","mesh":15},{"name":"Nose","children":[19]},{"translation":[0,0,0.5],"name":"sphere","mesh":16},{"name":"Tail","children":[21]},{"name":"Everything","children":[10,13,16,18,20,22]}],"bufferViews":[{"buffer":0,"byteOffset":0,"byteLength":48,"target":34962,"byteStride":12},{"buffer":0,"byteOffset":48,"byteLength":48,"target":34962,"byteStride":12},{"buffer":0,"byteOffset":96,"byteLength":32,"target":34962,"byteStride":8},{"buffer":0,"byteOffset":128,"byteLength":12,"target":34963},{"buffer":0,"byteOffset":140,"byteLength":48,"target":34962,"byteStride":12},{"buffer":0,"byteOffset":188,"byteLength":48,"target":34962,"byteStride":12},{"buffer":0,"byteOffset":236,"byteLength":32,"target":34962,"byteStride":8},{"buffer":0,"byteOffset":268,"byteLength":12,"target":34963},{"buffer":0,"byteOffset":280,"byteLength":48,"target":34962,"byteStride":12},{"buffer":0,"byteOffset":328,"byteLength":48,"target":34962,"byteStride":12},{"buffer":0,"byteOffset":376,"byteLength":32,"target":34962,"byteStride":8},{"buffer":0,"byteOffset":408,"byteLength":12,"target":34963},{"buffer":0,"byteOffset":420,"byteLength":48,"target":34962,"byteStride":12},{"buffer":0,"byteOffset":468,"byteLength":48,"target":34962,"byteStride":12},{"buffer":0,"byteOffset":516,"byteLength":32,"target":34962,"byteStride":8},{"buffer":0,"byteOffset":548,"byteLength":12,"target":34963},{"buffer":0,"byteOffset":560,"byteLength":48,"target":34962,"byteStride":12},{"buffer":0,"byteOffset":608,"byteLength":48,"target":34962,"byteStride":12},{"buffer":0,"byteOffset":656,"byteLength":32,"target":34962,"byteStride":8},{"buffer":0,"byteOffset":688,"byteLength":12,"target":34963},{"buffer":0,"byteOffset":700,"byteLength":48,"target":34962,"byteStride":12},{"buffer":0,"byteOffset":748,"byteLength":48,"target":34962,"byteStride":12},{"buffer":0,"byteOffset":796,"byteLength":32,"target":34962,"byteStride":8},{"buffer":0,"byteOffset":828,"byteLength":12,"target":34963},{"buffer":0,"byteOffset":840,"byteLength":48,"target":34962,"byteStride":12},{"buffer":0,"byteOffset":888,"byteLength":48,"target":34962,"byteStride":12},{"buffer":0,"byteOffset":936,"byteLength":32,"target":34962,"byteStride":8},{"buffer":0,"byteOffset":968,"byteLength":12,"target":34963},{"buffer":0,"byteOffset":980,"byteLength":48,"target":34962,"byteStride":12},{"buffer":0,"byteOffset":1028,"byteLength":48,"target":34962,"byteStride":12},{"buffer":0,"byteOffset":1076,"byteLength":32,"target":34962,"byteStride":8},{"buffer":0,"byteOffset":1108,"byteLength":12,"target":34963},{"buffer":0,"byteOffset":1120,"byteLength":48,"target":34962,"byteStride":12},{"buffer":0,"byteOffset":1168,"byteLength":48,"target":34962,"byteStride":12},{"buffer":0,"byteOffset":1216,"byteLength":32,"target":34962,"byteStride":8},{"buffer":0,"byteOffset":1248,"byteLength":12,"target":34963},{"buffer":0,"byteOffset":1260,"byteLength":48,"target":34962,"byteStride":12},{"buffer":0,"byteOffset":1308,"byteLength":48,"target":34962,"byteStride":12},{"buffer":0,"byteOffset":1356,"byteLength":32,"target":34962,"byteStride":8},{"buffer":0,"byteOffset":1388,"byteLength":12,"target":34963},{"buffer":0,"byteOffset":1400,"byteLength":480,"target":34962,"byteStride":12},{"buffer":0,"byteOffset":1880,"byteLength":480,"target":34962,"byteStride":12},{"buffer":0,"byteOffset":2360,"byteLength":320,"target":34962,"byteStride":8},{"buffer":0,"byteOffset":2680,"byteLength":120,"target":34963},{"buffer":0,"byteOffset":2800,"byteLength":480,"target":34962,"byteStride":12},{"buffer":0,"byteOffset":3280,"byteLength":480,"target":34962,"byteStride":12},{"buffer":0,"byteOffset":3760,"byteLength":320,"target":34962,"byteStride":8},{"buffer":0,"byteOffset":4080,"byteLength":120,"target":34963},{"buffer":0,"byteOffset":4200,"byteLength":48,"target":34962,"byteStride":12},{"buffer":0,"byteOffset":4248,"byteLength":48,"target":34962,"byteStride":12},{"buffer":0,"byteOffset":4296,"byteLength":32,"target":34962,"byteStride":8},{"buffer":0,"byteOffset":4328,"byteLength":12,"target":34963},{"buffer":0,"byteOffset":4340,"byteLength":48,"target":34962,"byteStride":12},{"buffer":0,"byteOffset":4388,"byteLength":48,"target":34962,"byteStride":12},{"buffer":0,"byteOffset":4436,"byteLength":32,"target":34962,"byteStride":8},{"buffer":0,"byteOffset":4468,"byteLength":12,"target":34963},{"buffer":0,"byteOffset":4480,"byteLength":3168,"target":34962,"byteStride":12},{"buffer":0,"byteOffset":7648,"byteLength":3168,"target":34962,"byteStride":12},{"buffer":0,"byteOffset":10816,"byteLength":2112,"target":34962,"byteStride":8},{"buffer":0,"byteOffset":12928,"byteLength":720,"target":34963},{"buffer":0,"byteOffset":13648,"byteLength":3168,"target":34962,"byteStride":12},{"buffer":0,"byteOffset":16816,"byteLength":3168,"target":34962,"byteStride":12},{"buffer":0,"byteOffset":19984,"byteLength":2112,"target":34962,"byteStride":8},{"buffer":0,"byteOffset":22096,"byteLength":720,"target":34963},{"buffer":0,"byteOffset":22816,"byteLength":3168,"target":34962,"byteStride":12},{"buffer":0,"byteOffset":25984,"byteLength":3168,"target":34962,"byteStride":12},{"buffer":0,"byteOffset":29152,"byteLength":2112,"target":34962,"byteStride":8},{"buffer":0,"byteOffset":31264,"byteLength":720,"target":34963},{"buffer":0,"byteOffset":31984,"byteLength":16},{"buffer":0,"byteOffset":32000,"byteLength":64},{"buffer":0,"byteOffset":32064,"byteLength":12},{"buffer":0,"byteOffset":32076,"byteLength":36},{"buffer":0,"byteOffset":32112,"byteLength":16},{"buffer":0,"byteOffset":32128,"byteLength":48},{"buffer":0,"byteOffset":32176,"byteLength":16},{"buffer":0,"byteOffset":32192,"byteLength":48},{"buffer":0,"byteOffset":32240,"byteLength":12},{"buffer":0,"byteOffset":32252,"byteLength":36},{"buffer":0,"byteOffset":32288,"byteLength":12},{"buffer":0,"byteOffset":32300,"byteLength":36},{"buffer":0,"byteOffset":32336,"byteLength":12},{"buffer":0,"byteOffset":32348,"byteLength":36},{"buffer":0,"byteOffset":32384,"byteLength":12},{"buffer":0,"byteOffset":32396,"byteLength":36},{"buffer":0,"byteOffset":32432,"byteLength":12},{"buffer":0,"byteOffset":32444,"byteLength":36},{"buffer":0,"byteOffset":32480,"byteLength":4},{"buffer":0,"byteOffset":32484,"byteLength":12},{"buffer":0,"byteOffset":32496,"byteLength":28},{"buffer":0,"byteOffset":32524,"byteLength":112}],"buffers":[{"byteLength":32636,"uri":"data:application/octet-stream;base64,"}],"accessors":[{"bufferView":0,"componentType":5126,"count":4,"max":[0.03125,0,0.0625],"min":[-0.03125,0,-0.0625],"type":"VEC3"},{"bufferView":1,"componentType":5126,"count":4,"max":[0,1,0],"min":[0,1,0],"type":"VEC3"},{"bufferView":2,"componentType":5126,"count":4,"max":[0.046875,0.046875],"min":[0.015625,0.015625],"type":"VEC2"},{"bufferView":3,"componentType":5123,"count":6,"max":[3],"min":[0],"type":"SCALAR"},{"bufferView":4,"componentType":5126,"count":4,"max":[0.03125,0,0.0625],"min":[-0.03125,0,-0.0625],"type":"VEC3"},{"bufferView":5,"componentType":5126,"count":4,"max":[0,1,0],"min":[0,1,0],"type":"VEC3"},{"bufferView":6,"componentType":5126,"count":4,"max":[0.046875,0.046875],"min":[0.015625,0.015625],"type":"VEC2"},{"bufferView":7,"componentType":5123,"count":6,"max":[3],"min":[0],"type":"SCALAR"},{"bufferView":8,"componentType":5126,"count":4,"max":[0.03125,0,0.0625],"min":[-0.03125,0,-0.0625],"type":"VEC3"},{"bufferView":9,"componentType":5126,"count":4,"max":[0,1,0],"min":[0,1,0],"type":"VEC3"},{"bufferView":10,"componentType":5126,"count":4,"max":[0.046875,0.046875],"min":[0.015625,0.015625],"type":"VEC2"},{"bufferView":11,"componentType":5123,"count":6,"max":[3],"min":[0],"type":"SCALAR"},{"bufferView":12,"componentType":5126,"count":4,"max":[0.03125,0,0.0625],"min":[-0.03125,0,-0.0625],"type":"VEC3"},{"bufferView":13,"componentType":5126,"count":4,"max":[0,1,0],"min":[0,1,0],"type":"VEC3"},{"bufferView":14,"componentType":5126,"count":4,"max":[0.046875,0.046875],"min":[0.015625,0.015625],"type":"VEC2"},{"bufferView":15,"componentType":5123,"count":6,"max":[3],"min":[0],"type":"SCALAR"},{"bufferView":16,"componentType":5126,"count":4,"max":[0.03125,0,0.0625],"min":[-0.03125,0,-0.0625],"type":"VEC3"},{"bufferView":17,"componentType":5126,"count":4,"max":[0,1,0],"min":[0,1,0],"type":"VEC3"},{"bufferView":18,"componentType":5126,"count":4,"max":[0.046875,0.046875],"min":[0.015625,0.015625],"type":"VEC2"},{"bufferView":19,"componentType":5123,"count":6,"max":[3],"min":[0],"type":"SCALAR"},{"bufferView":20,"componentType":5126,"count":4,"max":[0.03125,0,0.0625],"min":[-0.03125,0,-0.0625],"type":"VEC3"},{"bufferView":21,"componentType":5126,"count":4,"max":[0,1,0],"min":[0,1,0],"type":"VEC3"},{"bufferView":22,"componentType":5126,"count":4,"max":[0.046875,0.046875],"min":[0.015625,0.015625],"type":"VEC2"},{"bufferView":23,"componentType":5123,"count":6,"max":[3],"min":[0],"type":"SCALAR"},{"bufferView":24,"componentType":5126,"count":4,"max":[0.03125,0,0.0625],"min":[-0.03125,0,-0.0625],"type":"VEC3"},{"bufferView":25,"componentType":5126,"count":4,"max":[0,1,0],"min":[0,1,0],"type":"VEC3"},{"bufferView":26,"componentType":5126,"count":4,"max":[0.046875,0.046875],"min":[0.015625,0.015625],"type":"VEC2"},{"bufferView":27,"componentType":5123,"count":6,"max":[3],"min":[0],"type":"SCALAR"},{"bufferView":28,"componentType":5126,"count":4,"max":[0.03125,0,0.0625],"min":[-0.03125,0,-0.0625],"type":"VEC3"},{"bufferView":29,"componentType":5126,"count":4,"max":[0,1,0],"min":[0,1,0],"type":"VEC3"},{"bufferView":30,"componentType":5126,"count":4,"max":[0.046875,0.046875],"min":[0.015625,0.015625],"type":"VEC2"},{"bufferView":31,"componentType":5123,"count":6,"max":[3],"min":[0],"type":"SCALAR"},{"bufferView":32,"componentType":5126,"count":4,"max":[0.03125,0,0.0625],"min":[-0.03125,0,-0.0625],"type":"VEC3"},{"bufferView":33,"componentType":5126,"count":4,"max":[0,1,0],"min":[0,1,0],"type":"VEC3"},{"bufferView":34,"componentType":5126,"count":4,"max":[0.046875,0.046875],"min":[0.015625,0.015625],"type":"VEC2"},{"bufferView":35,"componentType":5123,"count":6,"max":[3],"min":[0],"type":"SCALAR"},{"bufferView":36,"componentType":5126,"count":4,"max":[0.03125,0,0.0625],"min":[-0.03125,0,-0.0625],"type":"VEC3"},{"bufferView":37,"componentType":5126,"count":4,"max":[0,1,0],"min":[0,1,0],"type":"VEC3"},{"bufferView":38,"componentType":5126,"count":4,"max":[0.046875,0.046875],"min":[0.015625,0.015625],"type":"VEC2"},{"bufferView":39,"componentType":5123,"count":6,"max":[3],"min":[0],"type":"SCALAR"},{"bufferView":40,"componentType":5126,"count":40,"max":[0.125,0.5,-0.0062500000931322575],"min":[-0.125,0,-0.03125],"type":"VEC3"},{"bufferView":41,"componentType":5126,"count":40,"max":[1,1,1],"min":[-1,-1,-1],"type":"VEC3"},{"bufferView":42,"componentType":5126,"count":40,"max":[0.40625,0.53125],"min":[0,0],"type":"VEC2"},{"bufferView":43,"componentType":5123,"count":60,"max":[39],"min":[0],"type":"SCALAR"},{"bufferView":44,"componentType":5126,"count":40,"max":[0.125,0.5,-0.0062500000931322575],"min":[-0.125,0,-0.03125],"type":"VEC3"},{"bufferView":45,"componentType":5126,"count":40,"max":[1,1,1],"min":[-1,-1,-1],"type":"VEC3"},{"bufferView":46,"componentType":5126,"count":40,"max":[0.40625,0.53125],"min":[0,0],"type":"VEC2"},{"bufferView":47,"componentType":5123,"count":60,"max":[39],"min":[0],"type":"SCALAR"},{"bufferView":48,"componentType":5126,"count":4,"max":[0.0625,0,0.09375],"min":[-0.0625,0,-0.09375],"type":"VEC3"},{"bufferView":49,"componentType":5126,"count":4,"max":[0,1,0],"min":[0,1,0],"type":"VEC3"},{"bufferView":50,"componentType":5126,"count":4,"max":[0.25,0.375],"min":[0,0],"type":"VEC2"},{"bufferView":51,"componentType":5123,"count":6,"max":[3],"min":[0],"type":"SCALAR"},{"bufferView":52,"componentType":5126,"count":4,"max":[0.0625,0,0.09375],"min":[-0.0625,0,-0.09375],"type":"VEC3"},{"bufferView":53,"componentType":5126,"count":4,"max":[0,1,0],"min":[0,1,0],"type":"VEC3"},{"bufferView":54,"componentType":5126,"count":4,"max":[0.25,0.375],"min":[0,0],"type":"VEC2"},{"bufferView":55,"componentType":5123,"count":6,"max":[3],"min":[0],"type":"SCALAR"},{"bufferView":56,"componentType":5126,"count":264,"max":[0.5,0.5,0.5],"min":[-0.5,-0.5,-0.5],"type":"VEC3"},{"bufferView":57,"componentType":5126,"count":264,"max":[0.9659259915351868,1,0.9659259915351868],"min":[-0.9659259915351868,-1,-0.9659259915351868],"type":"VEC3"},{"bufferView":58,"componentType":5126,"count":264,"max":[0.8009325265884399,0.6622633934020996],"min":[0.0011412500170990825,0],"type":"VEC2"},{"bufferView":59,"componentType":5123,"count":360,"max":[263],"min":[0],"type":"SCALAR"},{"bufferView":60,"componentType":5126,"count":264,"max":[0.0625,0.0625,0.0625],"min":[-0.0625,-0.0625,-0.0625],"type":"VEC3"},{"bufferView":61,"componentType":5126,"count":264,"max":[0.9659244418144226,1,0.9659244418144226],"min":[-0.9659244418144226,-1,-0.9659244418144226],"type":"VEC3"},{"bufferView":62,"componentType":5126,"count":264,"max":[0.984375,0.296875],"min":[0.015625,0.015625],"type":"VEC2"},{"bufferView":63,"componentType":5123,"count":360,"max":[263],"min":[0],"type":"SCALAR"},{"bufferView":64,"componentType":5126,"count":264,"max":[0.125,0.125,0.125],"min":[-0.125,-0.125,-0.125],"type":"VEC3"},{"bufferView":65,"componentType":5126,"count":264,"max":[0.9659258127212524,1,0.9659258127212524],"min":[-0.9659258127212524,-1,-0.9659258127212524],"type":"VEC3"},{"bufferView":66,"componentType":5126,"count":264,"max":[0.8386093974113464,0.780132532119751],"min":[0.0022437500301748514,0],"type":"VEC2"},{"bufferView":67,"componentType":5123,"count":360,"max":[263],"min":[0],"type":"SCALAR"},{"bufferView":68,"componentType":5126,"count":4,"max":[0.5],"min":[0],"type":"SCALAR"},{"bufferView":69,"componentType":5126,"count":4,"max":[0,0,0,1],"min":[0,0,-0.13052618503570557,0.9914448857307434],"type":"VEC4"},{"bufferView":70,"componentType":5126,"count":3,"max":[0.25],"min":[0],"type":"SCALAR"},{"bufferView":71,"componentType":5126,"count":3,"max":[1,1,1],"min":[1,0.10000000149011612,1],"type":"VEC3"},{"bufferView":72,"componentType":5126,"count":4,"max":[0.625],"min":[0],"type":"SCALAR"},{"bufferView":73,"componentType":5126,"count":4,"max":[0,0.0625,0],"min":[0,0,0],"type":"VEC3"},{"bufferView":74,"componentType":5126,"count":4,"max":[0.75],"min":[0],"type":"SCALAR"},{"bufferView":75,"componentType":5126,"count":4,"max":[0,0.0625,0],"min":[-0.0625,0,0],"type":"VEC3"},{"bufferView":76,"componentType":5126,"count":3,"max":[0.3333300054073334],"min":[0],"type":"SCALAR"},{"bufferView":77,"componentType":5126,"count":3,"max":[0,0.4375,0],"min":[0,0,0],"type":"VEC3"},{"bufferView":78,"componentType":5126,"count":3,"max":[3],"min":[0],"type":"SCALAR"},{"bufferView":79,"componentType":5126,"count":3,"max":[0,0.125,0],"min":[0,0,0],"type":"VEC3"},{"bufferView":80,"componentType":5126,"count":3,"max":[3],"min":[0],"type":"SCALAR"},{"bufferView":81,"componentType":5126,"count":3,"max":[0,0.125,0],"min":[0,0,0],"type":"VEC3"},{"bufferView":82,"componentType":5126,"count":3,"max":[3],"min":[0],"type":"SCALAR"},{"bufferView":83,"componentType":5126,"count":3,"max":[0,0,0],"min":[0,-0.125,0],"type":"VEC3"},{"bufferView":84,"componentType":5126,"count":3,"max":[3],"min":[0],"type":"SCALAR"},{"bufferView":85,"componentType":5126,"count":3,"max":[0,0,0],"min":[0,-0.125,0],"type":"VEC3"},{"bufferView":86,"componentType":5126,"count":1,"max":[0],"min":[0],"type":"SCALAR"},{"bufferView":87,"componentType":5126,"count":1,"max":[1,0,1],"min":[1,0,1],"type":"VEC3"},{"bufferView":88,"componentType":5126,"count":7,"max":[1],"min":[0],"type":"SCALAR"},{"bufferView":89,"componentType":5126,"count":7,"max":[0,0,0.8660253882408142,1],"min":[0,0,-0.9997619986534119,-1],"type":"VEC4"}],"materials":[{"pbrMetallicRoughness":{"metallicFactor":0,"roughnessFactor":1,"baseColorTexture":{"index":0}},"alphaMode":"MASK","alphaCutoff":0.05,"doubleSided":true},{"pbrMetallicRoughness":{"metallicFactor":0,"roughnessFactor":1,"baseColorTexture":{"index":1}},"alphaMode":"MASK","alphaCutoff":0.05,"doubleSided":true},{"pbrMetallicRoughness":{"metallicFactor":0,"roughnessFactor":1,"baseColorTexture":{"index":2}},"alphaMode":"MASK","alphaCutoff":0.05,"doubleSided":true},{"pbrMetallicRoughness":{"metallicFactor":0,"roughnessFactor":1,"baseColorTexture":{"index":3}},"alphaMode":"MASK","alphaCutoff":0.05,"doubleSided":true},{"pbrMetallicRoughness":{"metallicFactor":0,"roughnessFactor":1,"baseColorTexture":{"index":4}},"alphaMode":"MASK","alphaCutoff":0.05,"doubleSided":true},{"pbrMetallicRoughness":{"metallicFactor":0,"roughnessFactor":1,"baseColorTexture":{"index":5}},"alphaMode":"MASK","alphaCutoff":0.05,"doubleSided":true}],"textures":[{"sampler":0,"source":0,"name":"texture"},{"sampler":1,"source":1,"name":"Ears"},{"sampler":2,"source":2,"name":"texture"},{"sampler":3,"source":3,"name":"texture"},{"sampler":4,"source":4,"name":"texture"},{"sampler":5,"source":5,"name":"texture"}],"samplers":[{"magFilter":9728,"minFilter":9728,"wrapS":33071,"wrapT":33071},{"magFilter":9728,"minFilter":9728,"wrapS":33071,"wrapT":33071},{"magFilter":9728,"minFilter":9728,"wrapS":33071,"wrapT":33071},{"magFilter":9728,"minFilter":9728,"wrapS":33071,"wrapT":33071},{"magFilter":9728,"minFilter":9728,"wrapS":33071,"wrapT":33071},{"magFilter":9728,"minFilter":9728,"wrapS":33071,"wrapT":33071}],"images":[{"mimeType":"image/png","uri":"data:image/png;base64,"},{"mimeType":"image/png","uri":"data:image/png;base64,"},{"mimeType":"image/png","uri":"data:image/png;base64,"},{"mimeType":"image/png","uri":"data:image/png;base64,"},{"mimeType":"image/png","uri":"data:image/png;base64,"},{"mimeType":"image/png","uri":"data:image/png;base64,"}],"meshes":[{"primitives":[{"mode":4,"attributes":{"POSITION":0,"NORMAL":1,"TEXCOORD_0":2},"indices":3,"material":0}]},{"primitives":[{"mode":4,"attributes":{"POSITION":4,"NORMAL":5,"TEXCOORD_0":6},"indices":7,"material":0}]},{"primitives":[{"mode":4,"attributes":{"POSITION":8,"NORMAL":9,"TEXCOORD_0":10},"indices":11,"material":0}]},{"primitives":[{"mode":4,"attributes":{"POSITION":12,"NORMAL":13,"TEXCOORD_0":14},"indices":15,"material":0}]},{"primitives":[{"mode":4,"attributes":{"POSITION":16,"NORMAL":17,"TEXCOORD_0":18},"indices":19,"material":0}]},{"primitives":[{"mode":4,"attributes":{"POSITION":20,"NORMAL":21,"TEXCOORD_0":22},"indices":23,"material":0}]},{"primitives":[{"mode":4,"attributes":{"POSITION":24,"NORMAL":25,"TEXCOORD_0":26},"indices":27,"material":0}]},{"primitives":[{"mode":4,"attributes":{"POSITION":28,"NORMAL":29,"TEXCOORD_0":30},"indices":31,"material":0}]},{"primitives":[{"mode":4,"attributes":{"POSITION":32,"NORMAL":33,"TEXCOORD_0":34},"indices":35,"material":0}]},{"primitives":[{"mode":4,"attributes":{"POSITION":36,"NORMAL":37,"TEXCOORD_0":38},"indices":39,"material":0}]},{"primitives":[{"mode":4,"attributes":{"POSITION":40,"NORMAL":41,"TEXCOORD_0":42},"indices":43,"material":1}]},{"primitives":[{"mode":4,"attributes":{"POSITION":44,"NORMAL":45,"TEXCOORD_0":46},"indices":47,"material":1}]},{"primitives":[{"mode":4,"attributes":{"POSITION":48,"NORMAL":49,"TEXCOORD_0":50},"indices":51,"material":2}]},{"primitives":[{"mode":4,"attributes":{"POSITION":52,"NORMAL":53,"TEXCOORD_0":54},"indices":55,"material":2}]},{"primitives":[{"mode":4,"attributes":{"POSITION":56,"NORMAL":57,"TEXCOORD_0":58},"indices":59,"material":3}]},{"primitives":[{"mode":4,"attributes":{"POSITION":60,"NORMAL":61,"TEXCOORD_0":62},"indices":63,"material":4}]},{"primitives":[{"mode":4,"attributes":{"POSITION":64,"NORMAL":65,"TEXCOORD_0":66},"indices":67,"material":5}]}],"animations":[{"name":"Idle","samplers":[{"input":68,"output":69,"interpolation":"LINEAR"},{"input":70,"output":71,"interpolation":"LINEAR"},{"input":72,"output":73,"interpolation":"LINEAR"},{"input":74,"output":75,"interpolation":"LINEAR"}],"channels":[{"sampler":0,"target":{"node":13,"path":"rotation"}},{"sampler":1,"target":{"node":16,"path":"scale"}},{"sampler":2,"target":{"node":20,"path":"translation"}},{"sampler":3,"target":{"node":22,"path":"translation"}}]},{"name":"Walk","samplers":[{"input":76,"output":77,"interpolation":"LINEAR"}],"channels":[{"sampler":0,"target":{"node":23,"path":"translation"}}]},{"name":"Jump","samplers":[{"input":78,"output":79,"interpolation":"LINEAR"},{"input":80,"output":81,"interpolation":"LINEAR"}],"channels":[{"sampler":0,"target":{"node":16,"path":"translation"}},{"sampler":1,"target":{"node":20,"path":"translation"}}]},{"name":"Fall","samplers":[{"input":82,"output":83,"interpolation":"LINEAR"},{"input":84,"output":85,"interpolation":"LINEAR"}],"channels":[{"sampler":0,"target":{"node":16,"path":"translation"}},{"sampler":1,"target":{"node":20,"path":"translation"}}]},{"name":"Death","samplers":[{"input":86,"output":87,"interpolation":"LINEAR"},{"input":88,"output":89,"interpolation":"LINEAR"}],"channels":[{"sampler":0,"target":{"node":16,"path":"scale"}},{"sampler":1,"target":{"node":23,"path":"rotation"}}]}]}