{"asset":{"version":"2.0","generator":"Blockbench 5.0.7 glTF exporter"},"scenes":[{"nodes":[0,1],"name":"blockbench_export"}],"scene":0,"nodes":[{"name":"cylinder","mesh":0},{"rotation":[0,0,-0.7071067811865475,0.7071067811865476],"translation":[0,1.8125,0],"name":"cylinder","mesh":1}],"bufferViews":[{"buffer":0,"byteOffset":0,"byteLength":960,"target":34962,"byteStride":12},{"buffer":0,"byteOffset":960,"byteLength":960,"target":34962,"byteStride":12},{"buffer":0,"byteOffset":1920,"byteLength":640,"target":34962,"byteStride":8},{"buffer":0,"byteOffset":2560,"byteLength":192,"target":34963},{"buffer":0,"byteOffset":2752,"byteLength":1440,"target":34962,"byteStride":12},{"buffer":0,"byteOffset":4192,"byteLength":1440,"target":34962,"byteStride":12},{"buffer":0,"byteOffset":5632,"byteLength":960,"target":34962,"byteStride":8},{"buffer":0,"byteOffset":6592,"byteLength":288,"target":34963}],"buffers":[{"byteLength":6880,"uri":"data:application/octet-stream;base64,"}],"accessors":[{"bufferView":0,"componentType":5126,"count":80,"max":[0.03125,1.3125,0.03125],"min":[-0.03125,0,-0.03125],"type":"VEC3"},{"bufferView":1,"componentType":5126,"count":80,"max":[1,1,1],"min":[-1,-1,-1],"type":"VEC3"},{"bufferView":2,"componentType":5126,"count":80,"max":[0.984375,0.109375],"min":[0.015625,0.015625],"type":"VEC2"},{"bufferView":3,"componentType":5123,"count":96,"max":[79],"min":[0],"type":"SCALAR"},{"bufferView":4,"componentType":5126,"count":120,"max":[0.5,0.0625,0.5],"min":[-0.5,-0.05624999850988388,-0.5],"type":"VEC3"},{"bufferView":5,"componentType":5126,"count":120,"max":[1,1,1],"min":[-1,-1,-1],"type":"VEC3"},{"bufferView":6,"componentType":5126,"count":120,"max":[0.935337483882904,0.9375],"min":[0.40625,0],"type":"VEC2"},{"bufferView":7,"componentType":5123,"count":144,"max":[119],"min":[0],"type":"SCALAR"}],"materials":[{"pbrMetallicRoughness":{"metallicFactor":0,"roughnessFactor":1,"baseColorTexture":{"index":0}},"alphaMode":"MASK","alphaCutoff":0.05,"doubleSided":true},{"pbrMetallicRoughness":{"metallicFactor":0,"roughnessFactor":1,"baseColorTexture":{"index":1}},"alphaMode":"MASK","alphaCutoff":0.05,"doubleSided":true}],"textures":[{"sampler":0,"source":0,"name":"texture"},{"sampler":1,"source":1,"name":"texture"}],"samplers":[{"magFilter":9728,"minFilter":9728,"wrapS":33071,"wrapT":33071},{"magFilter":9728,"minFilter":9728,"wrapS":33071,"wrapT":33071}],"images":[{"mimeType":"image/png","uri":"data:image/png;base64,"},{"mimeType":"image/png","uri":"data:image/png;base64,"}],"meshes":[{"primitives":[{"mode":4,"attributes":{"POSITION":0,"NORMAL":1,"TEXCOORD_0":2},"indices":3,"material":0}]},{"primitives":[{"mode":4,"attributes":{"POSITION":4,"NORMAL":5,"TEXCOORD_0":6},"indices":7,"material":1}]}]}